<?xml version="1.0" standalone="no"?>
<!DOCTYPE svg PUBLIC "-//W3C//DTD SVG 20010904//EN"
 "http://www.w3.org/TR/2001/REC-SVG-20010904/DTD/svg10.dtd">
<svg version="1.0" xmlns="http://www.w3.org/2000/svg"
 width="180.000000pt" height="180.000000pt" viewBox="0 0 180.000000 180.000000"
 preserveAspectRatio="xMidYMid meet">
<metadata>
Created by potrace 1.14, written by Peter Selinger 2001-2017
</metadata>
<g transform="translate(0.000000,180.000000) scale(0.100000,-0.100000)"
fill="#000000" stroke="none">
<path d="M1082 1153 c-7 -2 -17 -14 -23 -25 -14 -26 5 -48 42 -48 37 0 53 45
24 67 -20 14 -23 14 -43 6z"/>
<path d="M920 960 l0 -160 40 0 40 0 0 160 0 160 -40 0 -40 0 0 -160z"/>
<path d="M312 1101 c-65 -17 -102 -71 -102 -151 0 -104 41 -147 149 -157 42
-4 66 -13 95 -35 40 -32 40 -32 67 16 9 14 8 21 -2 27 -42 25 -42 25 -23 60
25 46 25 145 1 182 -9 15 -28 34 -40 42 -29 19 -102 27 -145 16z m88 -76 c32
-39 18 -158 -20 -170 -43 -14 -70 27 -70 106 0 52 17 79 49 79 15 0 34 -7 41
-15z"/>
<path d="M682 1093 c-16 -6 -42 -56 -42 -82 0 -43 22 -69 81 -95 37 -16 59
-31 59 -42 0 -14 -10 -16 -67 -13 l-68 4 0 -30 c0 -28 3 -30 45 -37 113 -17
180 17 180 92 0 49 -23 74 -90 99 -65 24 -62 39 7 43 57 3 58 3 61 36 l3 32
-78 -1 c-43 0 -84 -3 -91 -6z"/>
<path d="M1308 1031 c-30 -15 -38 -16 -42 -5 -3 8 -20 14 -41 14 l-35 0 0
-120 0 -120 45 0 45 0 0 84 c0 77 2 84 22 89 12 3 25 4 30 1 4 -3 8 -43 8 -90
l0 -84 45 0 45 0 0 84 c0 77 2 84 22 89 12 3 25 4 30 1 4 -3 8 -43 8 -90 l0
-84 45 0 45 0 0 101 c0 55 -4 109 -10 119 -14 27 -61 34 -104 16 -31 -13 -39
-13 -63 -1 -37 19 -51 19 -95 -4z"/>
<path d="M1050 920 l0 -120 45 0 45 0 0 120 0 120 -45 0 -45 0 0 -120z"/>
</g>
</svg>
